<svg width="352" height="293" viewBox="0 0 352 293" fill="none" xmlns="http://www.w3.org/2000/svg">
<rect x="71" y="76" width="274" height="217" rx="50" fill="white"/>
<path opacity="0.18" d="M91.943 121.435C98.598 113.052 110.097 107.475 121.812 103.175C132.212 99.3544 143.632 96.2403 155.161 97.1638C177.259 98.9461 193.479 114.792 215.421 117.466C224.061 118.516 232.879 117.414 241.55 116.493C256.55 114.873 271.919 113.801 286.788 115.988C301.658 118.175 316.14 124.044 324.042 133.691C332.817 144.385 332.296 158.06 327.952 170.189C323.608 182.318 315.919 193.611 310.91 205.588C309.008 210.125 307.496 214.986 309.038 219.587C310.437 223.761 314.173 227.235 317.126 230.929C322.935 238.234 325.831 246.624 325.476 255.113C298.777 261.39 269.668 256.516 243.431 249.235C220.121 242.754 197.819 234.448 175.621 226.088C157.924 219.422 140.087 212.643 124.823 203.206C110.353 194.259 98.5893 183.174 86.9388 172.172C83.2333 168.672 75.4315 163.235 74.2369 158.792C72.9815 154.132 77.0041 151.284 79.5105 147.065C84.4757 138.733 85.6486 129.358 91.943 121.435Z" fill="#3F3F3F"/>
<path d="M345 252.228V293H71V124H116.728V150.487H162.446V176.969H208.173V203.456H253.891V225.746H299.272V252.228H345Z" fill="#3F3F3F"/>
<path d="M345 246.676V286H71V123H116.728V148.546H162.446V174.089H208.173V199.635H253.891V221.133H299.272V246.676H345Z" fill="url(#paint0_linear_51_113)"/>
<path d="M71 124L345 293H71V124Z" fill="#3F3F3F"/>
<path d="M71 130L345 293H71V130Z" fill="url(#paint1_linear_51_113)"/>
<defs>
<linearGradient id="paint0_linear_51_113" x1="223.577" y1="183.464" x2="115.838" y2="380.178" gradientUnits="userSpaceOnUse">
<stop stop-color="white" stop-opacity="0"/>
<stop offset="0.221154"/>
</linearGradient>
<linearGradient id="paint1_linear_51_113" x1="219.872" y1="155.937" x2="177.999" y2="420.92" gradientUnits="userSpaceOnUse">
<stop stop-opacity="0"/>
<stop offset="0.99"/>
</linearGradient>
</defs>
</svg>
